<svg xmlns="http://www.w3.org/2000/svg" width="123" height="78.925" viewBox="0 0 123 78.925"><g transform="translate(-24.5 -53.623)"><path d="M451.154,345.088a1.226,1.226,0,0,1-.019-.369q0-7.075,0-14.151c0-.48-.052-.408.413-.409q8.716,0,17.432,0a4.586,4.586,0,0,1,4.687,4.017,4.522,4.522,0,0,1-.818,3.293c-.1.152-.054.232.027.351a4.507,4.507,0,0,1,.845,2.773,4.611,4.611,0,0,1-3.426,4.353c-.1.027-.2.044-.3.065a1.392,1.392,0,0,0-.6.074ZM461.932,333.4h-6.891c-.3,0-.3,0-.3.288,0,.619,0,1.238,0,1.857,0,.424-.061.392.4.392h13.41a3.994,3.994,0,0,0,.438-.019,1.242,1.242,0,0,0,1.1-1.1,1.262,1.262,0,0,0-.843-1.348,1.672,1.672,0,0,0-.566-.069h-6.756m.035,8.469h6.62c.1,0,.2,0,.3,0a1.257,1.257,0,0,0,1.217-1.277,1.217,1.217,0,0,0-1.245-1.239c-4.627-.014-9.254-.007-13.881-.006-.234,0-.239.006-.24.245q0,.962,0,1.924c0,.379-.051.354.369.354h6.856" transform="translate(-363.118 -230.052)" fill="#fff"/><path d="M232.5,18.718l-1.217.062a.079.079,0,0,0-.134.005,87.012,87.012,0,0,0-46.87,16.95c-.039-.041-.05-.048-.053-.058a.045.045,0,0,1,0-.033.615.615,0,0,1,.075-.108Q202.092,17.759,219.86,0l18.647,18.642c-.006.025-.05.028-.1.027-1.9-.037-3.8-.034-5.705.044a.139.139,0,0,0-.2.005" transform="translate(-133.793 53.623)" fill="#fff"/><path d="M304.624,184.6c-1.353.115-2.706.235-4.055.4-.049-.05-.093-.037-.134.01-1.256.167-2.515.316-3.764.537L294.1,186c-1.044.186-2.077.418-3.116.624,0-.046-.007-.091-.01-.137,1.583-.83,3.2-1.581,4.842-2.294a79.006,79.006,0,0,1,15.3-4.867c.775-.16,1.55-.325,2.33-.459,1.119-.193,2.24-.381,3.365-.535a81.69,81.69,0,0,1,11.575-.758q2.078.012,4.151.137a.08.08,0,0,0,.134.005c1,.053,2,.135,2.994.228.414.039.828.085,1.242.123a.72.72,0,0,1,.469.224q7.454,7.462,14.915,14.917c.032.032.061.066.091.1l-.13.023c-1.007-.465-2.009-.939-3.023-1.39-.584-.259-1.182-.491-1.771-.737-.477-.2-.957-.393-1.435-.593-.584-.245-1.182-.459-1.78-.669-1.174-.412-2.348-.825-3.53-1.21-.771-.251-1.552-.474-2.328-.709-1.356-.409-2.725-.761-4.1-1.1q-1.687-.411-3.4-.724c-.7-.129-1.408-.252-2.108-.4-1.2-.246-2.406-.4-3.611-.595-.041-.048-.085-.063-.135-.013-2.2-.3-4.409-.51-6.623-.667a.08.08,0,0,0-.135-.006q-2.087-.134-4.178-.178c-2.272-.047-4.543-.027-6.812.1-.842.046-1.684.1-2.525.147a.08.08,0,0,0-.134.007" transform="translate(-225.508 -98.951)" fill="#fff"/><path d="M31.929,342.616a.815.815,0,0,0-.365-.034q-2.327,0-4.653,0c-1.211-1.207-2.428-2.407-3.627-3.625a.965.965,0,0,0-.763-.312q-6.581.015-13.162,0a.785.785,0,0,0-.618.249c-1.217,1.232-2.446,2.453-3.672,3.677L0,342.579c.033-.1.124-.158.194-.228q7.2-7.2,14.4-14.4a1.915,1.915,0,0,1,1.332-.638,1.8,1.8,0,0,1,1.288.479c.092.083.177.173.264.261q7.128,7.125,14.252,14.253c.085.085.24.136.2.307M15.991,331.759l-3.261,3.26c.353.059,6.3.041,6.5-.018l-3.244-3.242" transform="translate(24.5 -227.612)" fill="#fff"/><path d="M652.044,342.6c-.416,0-.833-.013-1.249-.013q-1.706,0-3.412,0c-.123,0-.246.012-.37.019.014-.127.126-.181.2-.257q7.2-7.2,14.393-14.4a1.893,1.893,0,0,1,1.3-.629,1.787,1.787,0,0,1,1.268.44c.085.073.164.154.243.234l14.3,14.3c.071.071.135.149.2.223-.1.121-.23.065-.346.066q-2.328.006-4.656,0c-1.219-1.215-2.444-2.425-3.653-3.65a.9.9,0,0,0-.706-.286q-6.6.012-13.2,0a.785.785,0,0,0-.616.255c-1.138,1.153-2.288,2.3-3.434,3.44-.087.087-.18.169-.27.253m14.277-7.563a1.45,1.45,0,0,0-.094-.129q-1.54-1.542-3.081-3.081c-.151-.151-.157-.149-.338.031q-1.518,1.515-3.033,3.034c-.035.035-.1.063-.068.146Z" transform="translate(-531.425 -227.619)" fill="#fff"/><path d="M282.783,345.148c-.135,0-.27.008-.405.008l-18.308,0a1.308,1.308,0,0,0-.134.014,1.749,1.749,0,0,1-1.49-1.551,3.931,3.931,0,0,1-.02-.438q0-6.249,0-12.5c0-.392-.024-.368.364-.367h2.872c.409,0,.367-.028.367.359q0,3.614,0,7.228c0,1.1,0,2.207,0,3.31,0,.445-.061.384.4.384l15.913,0c.522,0,.448-.063.448.445,0,1.035-.007,2.071-.01,3.107" transform="translate(-200.982 -230.187)" fill="#fff"/><path d="M.407.174l3.1-7.74h.605L7.183.174H6.314L3.641-6.666H3.96L1.265.174ZM1.826-1.839v-.731h3.96v.731ZM8.47.174v-7.74h.8V.174ZM9,.174V-.58h4.169V.174Zm6.083,0V-.557h2.4a1.594,1.594,0,0,0,1.177-.427,1.447,1.447,0,0,0,.429-1.069,1.529,1.529,0,0,0-.187-.754,1.37,1.37,0,0,0-.533-.534,1.632,1.632,0,0,0-.819-.2H15.081v-.72h2.343A1.361,1.361,0,0,0,18.4-4.6a1.252,1.252,0,0,0,.358-.956,1.2,1.2,0,0,0-.385-.956,1.513,1.513,0,0,0-1.034-.337H15.081v-.72h2.277a2.561,2.561,0,0,1,1.2.259,1.8,1.8,0,0,1,.748.7,1.946,1.946,0,0,1,.253.99,1.889,1.889,0,0,1-.33,1.119,2.054,2.054,0,0,1-.968.714l.077-.27a2.271,2.271,0,0,1,1.149.776A2.051,2.051,0,0,1,19.9-2a2.123,2.123,0,0,1-.292,1.108,2.054,2.054,0,0,1-.847.776,2.882,2.882,0,0,1-1.337.287Zm-.517,0v-7.74h.8V.174Zm6.314,0,3.1-7.74h.6L27.654.174h-.869l-2.673-6.84h.319L21.736.174ZM22.3-1.839v-.731h3.96v.731ZM33.176.287a3.161,3.161,0,0,1-1.518-.343,3.566,3.566,0,0,1-1.122-.962l.561-.562a2.557,2.557,0,0,0,.9.821,2.57,2.57,0,0,0,1.215.27,1.914,1.914,0,0,0,1.177-.337,1.1,1.1,0,0,0,.451-.934,1.293,1.293,0,0,0-.209-.759A1.6,1.6,0,0,0,34.083-3a5.082,5.082,0,0,0-.743-.332q-.407-.146-.808-.309a3.5,3.5,0,0,1-.743-.411,1.827,1.827,0,0,1-.545-.63,2.075,2.075,0,0,1-.2-.979,1.916,1.916,0,0,1,.3-1.08,1.933,1.933,0,0,1,.814-.692,2.746,2.746,0,0,1,1.177-.242,2.869,2.869,0,0,1,1.314.292,2.81,2.81,0,0,1,.963.787l-.55.562a2.6,2.6,0,0,0-.77-.652,2.035,2.035,0,0,0-.979-.225,1.648,1.648,0,0,0-1.056.315,1.058,1.058,0,0,0-.4.877,1.147,1.147,0,0,0,.2.709,1.607,1.607,0,0,0,.544.45,5.443,5.443,0,0,0,.743.321q.4.141.808.309A3.243,3.243,0,0,1,34.9-3.5a1.973,1.973,0,0,1,.545.658,2.187,2.187,0,0,1,.209,1.018A1.92,1.92,0,0,1,34.986-.27,2.732,2.732,0,0,1,33.176.287Zm5.962-3.307-3-4.545h.946l2.5,3.814h-.4L41.7-7.566h.913L39.589-3.021ZM38.973.174V-3.617h.814V.174Zm4.73,0v-7.74h.572l.231.979V.174Zm5.236,0L44.154-6.463l.121-1.1L49.049-.928Zm0,0L48.7-.76V-7.566h.814V.174Zm5.929.112a3.751,3.751,0,0,1-1.513-.3A3.637,3.637,0,0,1,52.14-.872a3.9,3.9,0,0,1-.8-1.277,4.284,4.284,0,0,1-.28-1.558,4.284,4.284,0,0,1,.28-1.558,3.823,3.823,0,0,1,.792-1.266,3.67,3.67,0,0,1,1.2-.844,3.685,3.685,0,0,1,1.5-.3,3.7,3.7,0,0,1,1.556.315,3.814,3.814,0,0,1,1.2.866l-.55.562a2.782,2.782,0,0,0-.957-.7,3.015,3.015,0,0,0-1.254-.253,2.861,2.861,0,0,0-1.172.236,2.82,2.82,0,0,0-.935.669,3.008,3.008,0,0,0-.616,1.012A3.618,3.618,0,0,0,51.9-3.707a3.583,3.583,0,0,0,.22,1.271,3.117,3.117,0,0,0,.616,1.018,2.748,2.748,0,0,0,.935.669,2.9,2.9,0,0,0,1.177.236,3.079,3.079,0,0,0,1.292-.259,2.832,2.832,0,0,0,.962-.709l.55.574a3.71,3.71,0,0,1-1.21.872A3.752,3.752,0,0,1,54.868.287ZM59.059.174v-7.74h.8V.174Zm4.961,0v-7.74h.8V.174ZM59.587-3.448V-4.2H64.24v.754Zm7.689.157v-.7h2.2a1.568,1.568,0,0,0,1.144-.388,1.391,1.391,0,0,0,.4-1.041,1.4,1.4,0,0,0-.4-1.029,1.541,1.541,0,0,0-1.144-.4h-2.2v-.72h2.2a2.7,2.7,0,0,1,1.265.276,1.955,1.955,0,0,1,.809.759,2.157,2.157,0,0,1,.281,1.1A2.2,2.2,0,0,1,71.549-4.3a1.884,1.884,0,0,1-.809.748,2.8,2.8,0,0,1-1.265.264ZM66.759.174v-7.74h.8V.174Zm4.576,0L68.5-3.4l.781-.259L72.369.174Zm5.5.112a3.59,3.59,0,0,1-1.491-.309,3.781,3.781,0,0,1-1.2-.855,3.991,3.991,0,0,1-.809-1.271,4.14,4.14,0,0,1-.291-1.558,4.2,4.2,0,0,1,.286-1.564,3.865,3.865,0,0,1,.8-1.26,3.766,3.766,0,0,1,1.2-.844,3.608,3.608,0,0,1,1.485-.3,3.647,3.647,0,0,1,1.49.3,3.748,3.748,0,0,1,1.2.844,3.851,3.851,0,0,1,.8,1.266A4.241,4.241,0,0,1,80.6-3.7a4.21,4.21,0,0,1-.286,1.558,3.9,3.9,0,0,1-.8,1.266,3.777,3.777,0,0,1-1.194.849A3.552,3.552,0,0,1,76.835.287Zm-.022-.8a2.813,2.813,0,0,0,1.523-.416,2.915,2.915,0,0,0,1.045-1.136,3.469,3.469,0,0,0,.38-1.642,3.537,3.537,0,0,0-.22-1.266,3.13,3.13,0,0,0-.616-1.012A2.762,2.762,0,0,0,78-6.654a2.889,2.889,0,0,0-1.182-.236A2.821,2.821,0,0,0,75.3-6.48a2.874,2.874,0,0,0-1.045,1.131,3.469,3.469,0,0,0-.38,1.642,3.583,3.583,0,0,0,.22,1.271,3.117,3.117,0,0,0,.616,1.018,2.748,2.748,0,0,0,.935.669A2.872,2.872,0,0,0,76.813-.512Zm6.842.686V-7.352h.814V.174ZM80.993-6.812v-.754h6.138v.754Zm8.03,3.521v-.7h2.2a1.568,1.568,0,0,0,1.144-.388,1.391,1.391,0,0,0,.4-1.041,1.4,1.4,0,0,0-.4-1.029,1.541,1.541,0,0,0-1.144-.4h-2.2v-.72h2.2a2.7,2.7,0,0,1,1.265.276,1.955,1.955,0,0,1,.809.759,2.157,2.157,0,0,1,.281,1.1A2.2,2.2,0,0,1,93.3-4.3a1.884,1.884,0,0,1-.809.748,2.8,2.8,0,0,1-1.265.264ZM88.506.174v-7.74h.8V.174Zm4.576,0L90.244-3.4l.781-.259L94.116.174Zm5.5.112a3.59,3.59,0,0,1-1.491-.309,3.781,3.781,0,0,1-1.2-.855,3.991,3.991,0,0,1-.809-1.271,4.14,4.14,0,0,1-.291-1.558,4.2,4.2,0,0,1,.286-1.564,3.865,3.865,0,0,1,.8-1.26,3.766,3.766,0,0,1,1.2-.844,3.608,3.608,0,0,1,1.485-.3,3.647,3.647,0,0,1,1.49.3,3.748,3.748,0,0,1,1.2.844,3.851,3.851,0,0,1,.8,1.266,4.241,4.241,0,0,1,.286,1.569,4.21,4.21,0,0,1-.286,1.558,3.9,3.9,0,0,1-.8,1.266,3.777,3.777,0,0,1-1.194.849A3.552,3.552,0,0,1,98.582.287Zm-.022-.8a2.813,2.813,0,0,0,1.523-.416,2.915,2.915,0,0,0,1.045-1.136,3.469,3.469,0,0,0,.38-1.642,3.537,3.537,0,0,0-.22-1.266,3.13,3.13,0,0,0-.616-1.012,2.762,2.762,0,0,0-.93-.669,2.889,2.889,0,0,0-1.182-.236,2.821,2.821,0,0,0-1.513.411A2.874,2.874,0,0,0,96-5.349a3.469,3.469,0,0,0-.38,1.642,3.583,3.583,0,0,0,.22,1.271,3.117,3.117,0,0,0,.616,1.018,2.748,2.748,0,0,0,.935.669A2.872,2.872,0,0,0,98.56-.512Zm5.346.686v-7.74h.572l.231.979V.174Zm5.236,0-4.785-6.637.121-1.1,4.774,6.637Zm0,0L108.9-.76V-7.566h.814V.174Z" transform="translate(30.5 132.261)" fill="#fff"/></g></svg>